<?xml version="1.0" standalone="no"?>
<!DOCTYPE svg PUBLIC "-//W3C//DTD SVG 20010904//EN"
 "http://www.w3.org/TR/2001/REC-SVG-20010904/DTD/svg10.dtd">
<svg version="1.0" xmlns="http://www.w3.org/2000/svg"
 width="300.000000pt" height="300.000000pt" viewBox="0 0 300.000000 300.000000"
 preserveAspectRatio="xMidYMid meet">
<metadata>
Created by potrace 1.10, written by Peter Selinger 2001-2011
</metadata>
<g transform="translate(0.000000,300.000000) scale(0.100000,-0.100000)"
fill="#000000" stroke="none">
<path d="M2042 2534 c-62 -6 -114 -13 -116 -15 -2 -2 -80 -110 -173 -239 -162
-224 -170 -239 -183 -303 -7 -37 -11 -69 -9 -71 2 -2 72 4 156 13 152 17 152
17 148 -4 -8 -34 -33 -170 -32 -171 1 0 44 4 94 9 l93 10 6 36 c4 20 12 63 18
96 l12 60 41 3 41 3 11 64 c7 36 14 72 18 81 6 15 1 16 -41 11 -41 -6 -47 -5
-42 9 9 24 78 404 74 412 -2 4 -54 2 -116 -4z m64 -102 c-4 -35 -8 -68 -11
-71 -3 -6 -10 -45 -40 -218 -2 -15 5 -30 24 -45 15 -13 30 -28 34 -34 11 -18
-13 -74 -31 -74 -37 -1 -63 -38 -76 -107 -14 -75 -31 -93 -95 -93 -36 0 -36
-4 -15 102 4 21 -1 34 -20 53 -15 14 -30 24 -34 22 -4 -3 -58 -8 -119 -12
l-113 -7 0 32 c0 41 4 48 118 203 52 73 122 169 154 214 43 60 66 84 86 88 15
3 38 9 52 13 14 4 40 6 59 3 l33 -3 -6 -66z"/>
<path d="M1905 2286 c-35 -35 -134 -196 -121 -196 11 0 152 208 145 214 -2 1
-13 -7 -24 -18z"/>
<path d="M1932 2258 c-6 -18 -16 -63 -22 -100 l-12 -68 -37 0 c-20 0 -43 -5
-51 -10 -10 -7 1 -8 35 -5 28 3 55 12 61 20 14 19 49 183 42 191 -3 3 -11 -10
-16 -28z"/>
<path d="M1269 2467 c-25 -7 -65 -25 -90 -39 -48 -29 -129 -96 -129 -106 1 -4
21 -29 46 -56 l45 -49 37 35 c46 44 72 58 110 58 35 0 62 -27 62 -62 0 -14
-14 -54 -31 -89 -26 -52 -62 -94 -195 -226 -154 -153 -165 -166 -175 -214 -6
-27 -9 -53 -6 -56 5 -4 388 29 495 43 37 6 42 9 42 33 0 14 7 53 14 86 8 33
14 60 13 61 -5 4 -218 -26 -227 -31 -23 -14 -6 8 56 72 75 79 167 210 190 274
36 101 13 209 -53 250 -43 27 -140 34 -204 16z m170 -40 c17 -7 28 -16 24 -20
-3 -4 -1 -7 6 -7 22 0 44 -71 38 -123 -6 -47 -82 -207 -99 -207 -4 0 -8 -6 -8
-13 0 -7 -13 -23 -29 -37 -17 -13 -28 -27 -25 -31 2 -4 -5 -10 -16 -14 -11 -4
-18 -11 -15 -16 4 -5 0 -9 -8 -9 -8 0 -18 -11 -21 -25 -4 -14 -11 -22 -19 -19
-9 3 -13 -6 -14 -31 -1 -43 10 -47 122 -43 75 3 80 2 77 -17 -9 -69 -10 -69
-102 -79 -212 -24 -344 -34 -352 -29 -23 13 5 50 130 173 191 188 252 278 252
375 0 34 -40 84 -68 86 -51 3 -81 -5 -121 -33 -48 -32 -73 -30 -79 9 -3 21 58
71 130 103 51 23 150 26 197 7z"/>
<path d="M1195 2150 c-38 -38 -74 -70 -79 -70 -5 0 -30 15 -57 34 -39 29 -50
32 -59 21 -11 -14 1 -25 83 -75 l39 -23 83 83 c74 74 92 100 67 100 -4 0 -39
-31 -77 -70z"/>
<path d="M2393 1965 c-296 -30 -311 -33 -317 -53 -11 -39 -28 -164 -23 -169 5
-4 517 41 592 52 17 3 62 29 101 58 l71 54 -53 41 c-64 50 -52 49 -371 17z
m325 -23 c11 -11 26 -22 33 -24 10 -3 3 -14 -21 -36 -48 -44 -86 -60 -155 -63
-49 -3 -59 -1 -55 11 2 8 5 37 5 63 0 51 1 52 65 59 83 11 110 8 128 -10z
m-208 -27 c0 -9 -9 -15 -22 -16 l-23 0 23 -9 c28 -12 28 -25 0 -44 -27 -19
-84 -21 -92 -3 -5 10 -7 10 -12 0 -12 -27 -25 -11 -19 25 l5 37 -13 -34 c-7
-19 -20 -39 -29 -44 -19 -13 -49 -2 -44 15 3 7 7 25 10 41 10 42 30 34 21 -9
-4 -21 -3 -34 3 -30 5 3 12 19 15 36 6 29 9 30 58 30 54 0 55 -1 34 -52 -6
-15 -4 -16 19 -5 16 8 20 14 12 17 -20 8 -3 43 25 51 13 4 25 7 27 8 1 1 2 -6
2 -14z m-313 -63 c-6 -23 -17 -42 -24 -42 -7 0 -10 7 -7 15 4 8 2 15 -4 15 -5
0 -12 -9 -15 -20 -10 -38 -30 -23 -22 17 8 46 12 53 30 53 9 0 12 -6 9 -15 -4
-8 -1 -15 5 -15 6 0 11 6 11 14 0 12 19 27 27 22 1 -1 -4 -20 -10 -44z m83 19
c0 -36 -25 -63 -54 -59 -17 2 -20 9 -18 33 4 39 19 55 48 55 20 0 24 -5 24
-29z"/>
<path d="M1375 1628 c-440 -44 -802 -84 -805 -88 -3 -5 -34 -175 -70 -378
l-65 -370 -71 -7 -72 -6 -50 -64 -51 -63 77 -37 c42 -20 89 -39 104 -42 14 -3
130 7 256 22 l230 28 6 48 c8 57 -1 53 166 68 63 5 328 31 589 56 l474 47 319
239 c175 132 318 243 318 247 0 4 -9 13 -20 20 -11 7 -119 91 -240 187 -200
160 -222 175 -257 174 -21 -1 -398 -37 -838 -81z m927 -5 c35 -26 77 -58 93
-72 17 -14 48 -39 69 -56 106 -83 179 -145 192 -163 13 -19 11 -22 -19 -39
-17 -11 -57 -39 -87 -64 -30 -24 -77 -60 -103 -79 -27 -19 -81 -60 -120 -90
-40 -31 -88 -67 -107 -80 -42 -29 -47 -33 -82 -64 -43 -38 -104 -54 -243 -66
-71 -6 -143 -13 -160 -15 -16 -3 -59 -7 -95 -9 -36 -2 -87 -7 -115 -10 -27 -4
-70 -8 -95 -11 -25 -2 -65 -6 -90 -9 -132 -16 -337 -35 -350 -33 -28 3 -105
-15 -122 -30 -11 -10 -84 -21 -235 -37 -120 -13 -219 -22 -221 -21 -8 7 22
103 38 120 20 22 54 184 54 267 l1 48 40 5 c22 3 341 34 710 70 988 96 1089
106 1097 114 4 3 -33 4 -82 3 -57 -3 -90 0 -90 6 0 6 5 12 12 14 8 3 13 34 15
89 5 114 5 112 20 127 23 23 27 63 9 92 -32 56 -15 54 66 -7z m-182 16 c-36
-4 -76 -11 -90 -15 -14 -4 -56 -7 -95 -8 -49 -1 -82 -7 -112 -22 -36 -18 -44
-19 -67 -7 -33 17 -175 3 -212 -22 -22 -14 -31 -15 -55 -5 -16 7 -45 10 -66 6
-21 -3 -81 -8 -133 -11 -52 -3 -102 -8 -110 -11 -8 -3 -55 -8 -105 -10 -49 -3
-106 -10 -125 -16 -19 -7 -66 -11 -105 -9 -51 1 -79 -3 -105 -16 -64 -33 -95
-107 -71 -168 6 -14 2 -28 -15 -48 -31 -37 -30 -64 3 -100 21 -21 23 -27 9
-21 -15 6 -17 4 -11 -6 5 -9 4 -11 -4 -6 -6 4 -9 12 -6 17 3 5 -1 6 -9 3 -9
-3 -13 -11 -10 -16 4 -7 -9 -8 -37 -3 -24 4 -45 8 -47 10 -2 2 6 55 42 255 10
59 20 91 29 97 6 4 8 0 4 -10 -3 -9 -2 -19 3 -22 9 -5 13 5 12 25 0 3 14 6 31
7 59 4 261 24 442 42 55 6 195 20 310 31 116 11 233 23 260 26 103 11 123 13
255 24 74 7 142 13 150 15 8 1 35 3 60 3 38 -1 34 -2 -20 -9z m96 -31 c-3 -13
-6 -31 -6 -40 0 -15 -9 -18 -54 -18 -46 0 -54 -3 -59 -21 -5 -20 -3 -21 39
-15 47 6 52 0 38 -51 -5 -19 -13 -23 -49 -23 -35 0 -44 -4 -48 -21 -5 -20 -3
-21 49 -17 l56 5 -7 -36 c-4 -20 -8 -36 -8 -37 -1 -1 -44 -5 -95 -10 l-93 -10
6 36 c3 19 15 85 27 146 l21 112 86 9 c47 6 90 11 95 12 4 0 6 -9 2 -21z
m-233 -23 c18 -13 18 -15 -4 -45 -15 -20 -28 -28 -39 -24 -36 15 -46 14 -67
-5 -25 -24 -44 -81 -36 -110 8 -31 41 -36 73 -13 l27 20 17 -28 16 -29 -43
-25 c-28 -17 -59 -26 -84 -26 -102 0 -124 133 -40 236 49 59 136 83 180 49z
m-236 -25 c-3 -11 -15 -76 -28 -144 -24 -132 -26 -135 -85 -136 -20 0 -20 0 6
142 28 150 31 156 89 157 19 1 22 -3 18 -19z m-99 2 c-1 -5 -32 -72 -68 -149
l-65 -141 -43 -7 c-24 -3 -45 -5 -47 -3 -2 2 -8 55 -14 118 -7 63 -14 127 -17
143 -5 26 -4 27 40 27 l46 0 2 -67 c0 -38 0 -79 -1 -93 -4 -40 13 -13 50 82
25 64 39 88 54 91 38 8 67 7 63 -1z m-282 -57 c20 -31 9 -87 -23 -120 l-26
-25 22 -52 c12 -28 20 -52 19 -54 -2 -1 -23 -4 -48 -5 l-44 -4 -15 48 c-21 67
-34 60 -43 -23 -2 -19 -11 -26 -41 -33 -21 -5 -40 -7 -42 -5 -3 2 8 69 23 149
l27 144 65 5 c86 7 108 2 126 -25z m-230 3 c-3 -7 -7 -25 -10 -40 -6 -26 -10
-28 -61 -28 -48 0 -55 -2 -55 -20 0 -18 5 -19 47 -13 45 6 46 6 40 -18 -4 -13
-7 -29 -7 -36 0 -6 -22 -14 -50 -18 -41 -6 -50 -10 -50 -27 0 -19 4 -20 56
-13 51 6 56 5 50 -10 -3 -9 -6 -25 -6 -35 0 -21 -17 -26 -126 -35 l-71 -7 18
89 c10 48 21 112 25 141 3 29 11 55 16 58 8 5 113 20 165 23 14 0 21 -4 19
-11z m-242 -33 c19 -15 19 -16 -9 -45 -21 -22 -32 -27 -41 -19 -15 13 -56 8
-61 -6 -2 -6 16 -17 39 -25 25 -9 48 -25 57 -41 13 -23 12 -30 -5 -64 -10 -21
-31 -47 -45 -58 -38 -27 -108 -33 -148 -12 l-33 17 28 31 c16 18 30 33 31 35
1 2 13 -4 27 -13 25 -17 66 -13 66 6 0 5 -20 18 -44 29 -50 21 -59 32 -58 71
2 60 62 109 132 109 25 -1 54 -7 64 -15z m1064 -18 c-2 -11 -10 -21 -18 -23
-8 -2 -25 -5 -37 -8 -27 -6 -31 18 -8 44 22 24 67 15 63 -13z m-348 -209 c0
-5 -16 -8 -35 -8 -39 0 -42 6 -19 39 l17 24 18 -24 c10 -13 19 -27 19 -31z
m156 37 c4 -8 10 -12 15 -9 5 3 9 1 9 -4 0 -10 -33 -22 -62 -22 -21 0 -24 20
-6 38 16 16 37 15 44 -3z m-1373 -563 c-2 -13 2 -33 8 -44 10 -19 17 -20 108
-14 160 12 194 15 254 21 46 5 57 3 57 -9 0 -20 -7 -22 -175 -41 -27 -3 -79
-10 -115 -15 -108 -16 -155 -12 -214 16 -58 27 -61 38 -27 78 21 24 50 36 81
33 20 -2 24 -7 23 -25z"/>
<path d="M2135 1163 c-11 -21 -21 -41 -23 -44 -1 -4 4 -9 11 -12 11 -4 13 0 9
15 -3 14 -1 19 6 14 19 -11 14 -33 -13 -62 -14 -15 -25 -37 -25 -50 0 -40 -17
-35 -28 8 -8 30 -8 46 0 55 7 9 7 13 0 13 -6 0 -13 -6 -15 -12 -4 -9 -6 -8 -6
3 -1 8 4 20 11 27 9 9 9 12 0 12 -7 0 -12 7 -12 15 0 22 15 18 33 -7 14 -21
15 -21 12 -3 -2 11 -4 28 -4 38 -1 18 -36 23 -60 8 -11 -7 -10 -20 8 -75 17
-53 19 -74 12 -108 -6 -23 -9 -44 -7 -45 2 -2 17 0 34 3 26 5 32 12 37 46 4
22 29 75 56 119 l49 79 -33 0 c-28 0 -36 -6 -52 -37z"/>
<path d="M1909 1173 c-21 -3 -33 -22 -80 -120 -29 -64 -55 -119 -57 -123 -1
-3 13 -4 32 -2 28 3 37 10 45 33 8 23 16 29 39 29 26 0 29 -3 24 -26 -4 -24
-3 -25 32 -22 20 2 37 6 38 8 1 3 -5 56 -12 118 -8 70 -17 111 -24 111 -6 -1
-22 -4 -37 -6z m31 -48 c14 -36 20 -144 10 -150 -5 -3 -18 3 -29 14 -21 21
-37 20 -78 -7 -21 -13 -23 -13 -23 7 0 12 7 24 15 27 9 4 14 14 13 23 -2 9 3
15 10 13 8 -1 12 3 9 10 -5 15 20 69 37 80 19 13 26 9 36 -17z"/>
<path d="M1620 1143 c-24 -4 -27 -10 -44 -110 -9 -58 -20 -111 -22 -117 -4 -9
10 -11 55 -5 101 12 151 65 151 163 0 67 -36 85 -140 69z m40 -29 c0 -4 -7
-12 -16 -19 -11 -8 -18 -31 -21 -68 -2 -32 -2 -57 1 -57 3 0 10 27 17 60 9 47
16 60 30 60 10 0 20 -9 24 -19 8 -26 -18 -87 -44 -100 -13 -7 -18 -17 -14 -27
4 -12 0 -15 -23 -12 -20 2 -28 8 -25 18 2 8 3 28 2 43 -1 16 2 26 7 24 4 -3 7
13 7 35 0 28 6 44 20 54 20 15 35 18 35 8z m70 -14 c18 -34 0 -109 -30 -127
-17 -11 -17 -10 -3 17 20 41 19 86 -2 110 -18 19 -17 20 3 20 12 0 26 -9 32
-20z"/>
<path d="M1512 1133 c-16 -3 -30 -18 -42 -46 -20 -45 -17 -64 6 -33 17 24 18
16 2 -19 -6 -14 -15 -25 -19 -25 -5 0 -11 -16 -15 -35 -9 -49 -20 -52 -28 -7
-3 20 -10 56 -14 80 -11 49 -4 54 20 15 l17 -28 1 32 c0 51 -7 59 -45 55 -19
-2 -35 -7 -35 -10 0 -2 9 -35 20 -73 16 -53 18 -76 11 -108 l-9 -41 33 0 c33
0 45 16 45 63 0 9 23 54 50 98 28 44 50 82 50 85 0 4 -13 4 -48 -3z"/>
<path d="M1199 1103 l-36 -4 -21 -117 c-12 -64 -20 -117 -18 -119 1 -2 17 0
33 3 26 5 32 12 37 45 8 49 21 50 33 2 9 -36 11 -38 44 -35 18 2 36 6 38 8 3
2 -3 20 -12 39 -16 34 -16 36 8 71 31 46 32 78 3 98 -22 16 -35 17 -109 9z
m101 -51 c0 -6 -8 -30 -19 -54 -11 -26 -15 -51 -11 -63 9 -25 4 -36 -15 -29
-8 4 -13 10 -10 14 2 4 -4 15 -15 25 -16 14 -23 15 -34 5 -9 -6 -18 -20 -21
-31 -11 -33 -23 -21 -18 19 2 20 7 44 10 52 3 8 7 29 10 45 6 36 1 31 43 38
34 6 34 6 8 -5 -21 -9 -28 -19 -28 -38 0 -35 18 -52 42 -39 10 5 18 6 19 2 1
-4 4 3 8 17 5 14 4 33 -1 43 -12 25 0 41 18 23 8 -8 14 -19 14 -24z m-42 -18
c-3 -19 -34 -41 -43 -32 -4 4 -4 16 0 27 8 25 48 29 43 5z"/>
<path d="M1051 1089 c-35 -4 -65 -10 -68 -12 -6 -6 -46 -227 -42 -231 2 -2 35
0 73 5 69 9 86 18 86 51 0 15 -7 17 -45 11 -28 -3 -45 -2 -45 4 0 17 23 31 55
35 24 2 31 8 33 31 3 27 2 28 -32 21 -29 -5 -36 -3 -36 10 0 12 10 16 44 16
37 0 45 4 50 23 8 30 7 47 -1 46 -5 -1 -37 -5 -72 -10z m-14 -47 c-22 -24 -21
-31 4 -58 19 -20 19 -22 3 -20 -10 2 -26 -7 -35 -18 -17 -20 -16 -22 3 -43
l21 -23 -32 0 -32 0 7 48 c3 26 9 52 13 57 3 6 7 21 9 35 3 26 18 40 41 40 11
0 11 -4 -2 -18z"/>
<path d="M905 1073 c-19 -3 -31 -28 -71 -138 -7 -18 -6 -19 11 -5 17 14 18 13
11 -5 -5 -11 -11 -28 -13 -37 -3 -11 -15 -18 -30 -18 -22 0 -25 4 -21 30 3 17
1 30 -3 30 -4 0 -5 10 -2 21 6 20 7 20 19 -7 12 -27 12 -24 13 42 1 39 -1 73
-4 75 -2 3 -19 3 -38 1 l-33 -4 13 -106 c6 -59 12 -111 13 -115 0 -5 16 -7 37
-5 36 3 37 4 94 126 60 127 60 126 4 115z"/>
<path d="M651 1048 c-83 -9 -91 -13 -91 -40 -1 -13 -9 -63 -19 -113 -10 -49
-18 -91 -17 -92 2 -2 149 16 152 19 1 2 5 15 9 30 l7 28 -46 -6 c-38 -6 -46
-4 -46 10 0 11 12 18 40 22 22 4 40 9 40 13 0 3 3 16 6 29 6 22 5 23 -30 17
-29 -6 -36 -4 -36 9 0 12 10 16 44 16 41 0 44 2 50 32 3 17 5 32 4 33 -2 0
-32 -2 -67 -7z m-41 -94 c11 -13 10 -19 -8 -37 l-22 -21 0 37 c0 40 10 46 30
21z"/>
<path d="M1258 1463 c-15 -4 -34 -50 -24 -60 2 -3 17 1 33 9 46 22 39 61 -9
51z"/>
<path d="M1145 1649 c-93 -10 -347 -36 -564 -59 -217 -22 -396 -42 -399 -45
-15 -15 24 -14 199 5 425 45 959 100 979 100 11 0 20 5 20 10 0 13 -29 12
-235 -11z"/>
<path d="M1480 758 c-316 -32 -582 -62 -590 -66 -43 -17 83 -8 581 43 604 61
609 62 609 75 0 6 -6 9 -12 9 -7 -1 -272 -28 -588 -61z"/>
</g>
</svg>
