<?xml version="1.0" standalone="no"?>
<!DOCTYPE svg PUBLIC "-//W3C//DTD SVG 20010904//EN"
 "http://www.w3.org/TR/2001/REC-SVG-20010904/DTD/svg10.dtd">
<svg version="1.0" xmlns="http://www.w3.org/2000/svg"
 width="237.000000pt" height="213.000000pt" viewBox="0 0 237.000000 213.000000"
 preserveAspectRatio="xMidYMid meet">
<metadata>
Created by potrace 1.10, written by Peter Selinger 2001-2011
</metadata>
<g transform="translate(0.000000,213.000000) scale(0.050000,-0.050000)"
fill="#000000" stroke="none">
<path d="M2024 4200 c-48 -22 -112 -57 -144 -80 -31 -22 -77 -40 -103 -40 -68
0 -193 -82 -231 -151 -104 -190 -106 -197 -105 -348 1 -83 9 -196 18 -251 12
-74 9 -110 -11 -139 -63 -90 -8 -280 87 -304 25 -6 45 -21 45 -34 0 -254 385
-613 658 -613 281 0 596 274 673 585 7 30 24 55 38 55 90 0 164 217 105 307
-24 36 -32 98 -31 246 3 487 -240 766 -670 767 -74 1 -95 6 -73 20 59 38 -167
20 -256 -20z m374 -246 c209 -55 220 -78 58 -132 -286 -94 -806 -83 -623 14
20 11 98 52 174 92 159 84 169 84 391 26z m488 -376 c15 -84 5 -296 -20 -395
-10 -43 -8 -44 30 -21 33 21 47 21 72 -1 64 -52 25 -188 -57 -204 -27 -5 -58
-58 -107 -184 -232 -597 -874 -590 -1117 14 -43 108 -77 165 -101 170 -50 9
-86 61 -86 124 0 67 51 116 85 82 41 -41 51 -25 33 52 -9 41 -17 153 -18 249
l0 174 95 -49 c209 -108 455 -110 781 -6 359 115 388 114 410 -5z"/>
<path d="M3160 3665 c0 -19 6 -55 13 -80 l12 -45 639 0 c400 0 653 -8 677 -21
96 -51 99 -81 99 -979 0 -1052 14 -1011 -347 -1009 -95 1 -173 -1 -173 -4 0
-3 15 -37 34 -76 l33 -71 172 0 c212 1 304 45 374 178 l47 88 0 894 0 894 -46
87 c-92 174 -118 179 -877 179 -612 0 -657 -2 -657 -35z"/>
<path d="M3440 2991 l0 -231 -198 0 -199 0 -32 -86 c-22 -57 -31 -131 -27
-225 l6 -139 224 7 224 7 6 -166 6 -165 110 -66 c94 -57 126 -66 220 -62 l110
5 6 227 5 227 208 -7 c252 -8 234 -25 234 223 0 247 22 226 -232 221 l-210 -3
-5 226 -6 226 -225 6 -225 5 0 -230z m240 -197 c0 -14 45 -77 100 -138 117
-131 117 -132 45 -197 -31 -27 -81 -80 -111 -119 l-56 -70 -34 50 c-19 27 -63
82 -99 122 -82 92 -82 93 16 199 44 48 85 108 92 133 12 49 47 64 47 20z"/>
<path d="M264 2824 c-155 -23 -249 -247 -247 -588 2 -469 110 -693 363 -758
l104 -27 -10 -90 c-48 -401 140 -719 426 -720 354 -2 517 253 411 643 -34 126
-34 138 -3 185 42 64 140 71 172 11 40 -74 152 -30 137 54 -11 57 -204 114
-289 85 -145 -47 -180 -173 -116 -419 69 -270 -45 -440 -296 -440 -233 0 -335
179 -336 584 0 121 -5 116 130 146 307 68 465 756 268 1164 -74 153 -322 250
-377 147 -45 -84 16 -140 108 -98 185 84 320 -539 178 -815 -123 -238 -620
-232 -722 10 -122 291 12 908 175 806 57 -35 96 -30 120 16 49 91 -23 130
-196 104z m262 -1183 c77 -1 166 12 207 29 143 60 138 10 -6 -53 -127 -57
-300 -55 -404 4 -103 58 -107 83 -8 48 41 -15 136 -28 211 -28z"/>
<path d="M1402 2020 c-264 -140 -355 -214 -315 -254 5 -4 120 55 256 131 271
152 277 152 218 14 -51 -117 -51 -131 -3 -131 29 0 48 26 72 100 46 140 47
139 176 -256 64 -195 159 -478 213 -629 54 -151 91 -274 84 -274 -7 1 -111
127 -232 281 -143 183 -228 276 -246 269 -16 -6 -37 -11 -48 -11 -18 0 36 -69
431 -546 89 -108 164 -203 167 -210 3 -8 -404 -14 -905 -14 -830 0 -910 3
-910 33 0 18 18 121 40 228 40 193 38 463 -2 355 -14 -40 -99 -446 -127 -611
l-13 -75 1988 0 1989 0 -30 165 c-104 575 -217 878 -373 997 -154 117 -1026
613 -1043 593 -4 -4 -126 -377 -321 -973 -14 -44 -25 -21 -84 192 l-57 201 55
77 55 78 -83 85 c-102 105 -106 105 -210 -1 l-84 -85 53 -73 52 -74 -57 -211
c-31 -116 -62 -211 -67 -210 -6 0 -83 221 -171 491 -88 270 -164 494 -170 497
-5 3 -140 -64 -298 -149z m2297 -447 c164 -112 217 -186 279 -383 33 -106 162
-652 162 -687 0 -7 -410 -13 -910 -13 -501 0 -908 6 -905 13 3 8 158 201 345
429 414 505 386 459 322 526 -65 67 -65 80 0 132 l52 41 -72 187 c-40 102 -72
193 -72 202 0 23 621 -325 799 -447z m-809 239 l56 -158 -67 -55 -67 -55 65
-73 64 -74 -100 -123 c-55 -68 -175 -220 -266 -338 -154 -199 -219 -264 -184
-181 8 19 105 307 217 638 111 332 207 598 214 590 6 -7 37 -84 68 -171z"/>
<path d="M3148 911 c-23 -59 15 -71 221 -71 213 0 280 23 227 76 -37 37 -434
32 -448 -5z"/>
<path d="M1484 1704 c-18 -12 -2 -28 56 -54 46 -21 91 -53 101 -72 64 -120
-64 -230 -172 -149 -98 75 -142 22 -47 -57 183 -155 424 91 263 268 -57 62
-156 94 -201 64z"/>
<path d="M155 384 l-155 -6 0 -101 c0 -94 6 -107 93 -189 l93 -88 412 0 411 0
91 100 90 101 490 9 c1022 20 1660 0 1660 -52 0 -21 13 -38 30 -38 16 0 28 -7
26 -15 -28 -97 23 -105 628 -105 l574 0 49 49 c27 27 43 54 36 61 -6 7 4 6 23
-1 30 -12 34 3 34 129 l0 142 -265 0 c-146 0 -1142 2 -2215 5 -1072 3 -2020 2
-2105 -1z m896 -162 c-7 -12 -27 -22 -44 -22 -21 0 -26 -12 -17 -40 7 -23 4
-40 -9 -40 -11 0 -21 11 -21 25 -1 17 -7 15 -20 -5 -14 -22 -19 -9 -18 50 0
53 6 68 15 44 14 -35 17 -34 52 5 38 42 90 27 62 -17z m-842 -11 c7 31 20 48
27 37 18 -27 164 -29 164 -3 0 11 13 9 29 -4 16 -14 38 -19 49 -12 10 6 25 2
32 -10 10 -14 28 -12 57 7 50 33 153 39 153 9 0 -11 18 -15 40 -9 22 6 44 3
50 -6 6 -9 30 -12 55 -6 36 8 39 5 15 -12 -26 -19 -26 -24 -1 -41 17 -10 24
-25 16 -33 -8 -7 -28 -2 -45 12 -18 15 -30 17 -30 4 0 -12 -27 -21 -60 -20
-33 1 -60 11 -60 21 0 11 -13 9 -29 -4 -16 -13 -45 -20 -65 -16 -30 8 -28 12
14 31 28 12 39 22 27 23 -13 0 -38 6 -55 13 -22 9 -32 1 -32 -25 0 -34 -17
-39 -160 -41 -98 -1 -160 6 -160 18 0 13 -12 11 -30 -4 -24 -20 -33 -15 -50
29 -29 77 -22 112 9 43 l25 -58 15 57z m3753 -56 c16 -27 2 -32 -102 -32 -80
-1 -120 7 -120 23 -1 16 -6 17 -15 3 -18 -25 -84 -25 -123 -1 -19 12 -24 11
-14 -4 9 -16 -9 -22 -56 -20 -45 1 -72 14 -77 34 -13 48 480 45 507 -3z m280
10 c2 -30 4 -30 11 -3 12 42 287 55 287 14 1 -18 6 -17 20 4 22 33 68 -10 48
-44 -22 -35 -188 -18 -188 19 -1 29 -4 30 -19 6 -29 -45 -180 -50 -183 -6 -2
32 -3 32 -12 -1 -8 -30 -27 -35 -111 -30 -141 8 -149 52 -11 61 58 4 117 9
131 11 14 2 26 -12 27 -31z"/>
</g>
</svg>
