<?xml version="1.0" standalone="no"?>
<!DOCTYPE svg PUBLIC "-//W3C//DTD SVG 20010904//EN"
 "http://www.w3.org/TR/2001/REC-SVG-20010904/DTD/svg10.dtd">
<svg version="1.0" xmlns="http://www.w3.org/2000/svg"
 width="300.000000pt" height="204.000000pt" viewBox="0 0 300.000000 204.000000"
 preserveAspectRatio="xMidYMid meet">
<metadata>
Created by potrace 1.10, written by Peter Selinger 2001-2011
</metadata>
<g transform="translate(0.000000,204.000000) scale(0.100000,-0.100000)"
fill="#000000" stroke="none">
<path d="M2002 1930 c0 -19 2 -27 5 -17 2 9 2 25 0 35 -3 9 -5 1 -5 -18z"/>
<path d="M1414 1806 c-134 -43 -218 -162 -218 -308 0 -66 5 -85 33 -142 58
-118 166 -182 292 -173 263 18 381 355 192 544 -78 78 -203 111 -299 79z m207
-62 c92 -46 138 -128 139 -247 0 -63 -5 -87 -25 -126 -85 -169 -303 -200 -428
-62 -51 57 -69 104 -70 186 -3 213 198 343 384 249z"/>
<path d="M886 1565 c-53 -19 -85 -44 -121 -94 -24 -34 -30 -54 -33 -111 -5
-84 9 -130 57 -183 141 -157 393 -56 394 158 0 104 -45 177 -138 221 -57 27
-102 29 -159 9z m154 -50 c29 -15 72 -60 89 -93 7 -12 12 -50 12 -83 1 -202
-252 -273 -350 -98 -19 34 -23 52 -19 108 3 56 9 75 31 105 16 20 39 44 53 53
51 33 128 36 184 8z"/>
<path d="M1978 1569 c-54 -16 -123 -80 -145 -137 -90 -237 185 -440 366 -269
48 46 71 101 71 175 0 70 -14 112 -55 160 -54 64 -155 94 -237 71z m152 -54
c59 -30 100 -101 100 -174 0 -63 -13 -97 -53 -140 -162 -171 -420 57 -286 254
52 75 157 101 239 60z"/>
<path d="M1457 1153 c-3 -5 -1 -18 4 -30 6 -18 16 -23 43 -23 33 0 46 13 46
46 0 10 -13 14 -44 14 -25 0 -47 -3 -49 -7z"/>
<path d="M1280 1103 c-71 -37 -167 -133 -207 -209 -54 -102 -63 -155 -63 -381
l0 -203 32 -20 c146 -88 728 -90 908 -2 l35 17 3 203 c2 160 -1 216 -14 265
-31 122 -109 235 -208 301 -101 67 -92 70 -182 -60 -43 -63 -81 -114 -84 -114
-3 0 -41 52 -85 115 -43 63 -79 115 -80 115 -1 0 -25 -12 -55 -27z m116 -123
c70 -95 92 -114 119 -104 8 4 47 49 86 100 39 52 77 94 83 94 22 0 101 -56
143 -102 48 -53 84 -119 107 -197 12 -42 16 -99 16 -241 0 -167 -2 -189 -18
-203 -50 -45 -350 -76 -569 -59 -156 12 -275 36 -298 59 -20 20 -21 363 -1
438 19 72 61 150 109 203 43 46 121 102 143 102 7 0 43 -41 80 -90z"/>
<path d="M1460 1046 c-11 -41 -10 -46 11 -75 12 -17 26 -31 29 -31 8 0 50 57
50 67 0 4 -5 25 -11 46 -8 32 -14 37 -38 37 -25 0 -30 -5 -41 -44z"/>
<path d="M920 1073 c1 -35 62 -44 68 -10 3 14 -4 17 -32 17 -20 0 -36 -3 -36
-7z"/>
<path d="M2012 1063 c2 -12 13 -18 33 -18 20 0 31 6 33 18 3 14 -4 17 -33 17
-29 0 -36 -3 -33 -17z"/>
<path d="M786 1039 c-58 -31 -129 -107 -162 -174 -28 -58 -29 -65 -32 -238 -3
-164 -2 -180 15 -192 28 -21 140 -44 252 -51 l101 -7 0 159 c0 100 6 184 15
227 17 81 64 181 112 237 38 44 38 44 8 54 -16 4 -27 -5 -57 -52 -21 -31 -48
-70 -61 -86 l-24 -29 -59 86 c-32 48 -61 86 -64 86 -3 0 -23 -9 -44 -20z m64
-71 c13 -18 42 -52 63 -75 l39 -43 -16 -80 c-10 -50 -16 -130 -16 -211 0 -103
-3 -131 -14 -135 -19 -7 -186 13 -233 29 l-38 12 -3 151 c-2 136 0 158 19 210
25 65 122 174 156 174 11 0 30 -15 43 -32z"/>
<path d="M1891 1051 c-11 -7 -7 -18 23 -53 49 -56 94 -151 111 -236 9 -42 15
-127 15 -226 l0 -159 102 7 c108 7 215 28 248 48 19 12 20 23 20 174 0 133 -3
171 -19 217 -24 70 -69 136 -118 175 -39 30 -103 66 -107 60 -2 -2 -29 -41
-61 -87 l-59 -84 -23 29 c-13 16 -40 55 -61 86 -38 59 -46 65 -71 49z m367
-96 c30 -27 63 -69 79 -103 26 -54 28 -66 31 -219 3 -148 2 -162 -15 -171 -29
-15 -122 -32 -198 -34 l-70 -3 -6 165 c-4 91 -12 178 -18 193 -14 35 -14 87
-1 87 5 0 33 29 62 65 28 36 59 65 69 65 9 0 40 -20 67 -45z"/>
<path d="M925 994 c-5 -27 -2 -41 11 -55 18 -19 18 -19 37 0 28 28 16 91 -17
91 -19 0 -25 -7 -31 -36z"/>
<path d="M2014 995 c-5 -27 -2 -41 12 -56 18 -20 18 -20 37 0 15 15 18 27 13
55 -6 30 -11 36 -31 36 -20 0 -25 -6 -31 -35z"/>
</g>
</svg>
