<?xml version="1.0" standalone="no"?>
<!DOCTYPE svg PUBLIC "-//W3C//DTD SVG 20010904//EN"
 "http://www.w3.org/TR/2001/REC-SVG-20010904/DTD/svg10.dtd">
<svg version="1.0" xmlns="http://www.w3.org/2000/svg"
 width="193.000000pt" height="165.000000pt" viewBox="0 0 193.000000 165.000000"
 preserveAspectRatio="xMidYMid meet">
<metadata>
Created by potrace 1.10, written by Peter Selinger 2001-2011
</metadata>
<g transform="translate(0.000000,165.000000) scale(0.100000,-0.100000)"
fill="#000000" stroke="none">
<path d="M995 1585 c-14 -13 -25 -36 -25 -50 0 -25 31 -65 50 -65 6 0 10 -52
10 -135 l0 -135 -57 0 -58 0 4 52 c2 28 9 58 17 66 18 18 18 37 -2 56 -20 21
-37 20 -57 -2 -21 -23 -21 -36 -2 -52 10 -8 15 -31 15 -66 l0 -54 -55 0 -55 0
0 85 c0 80 2 87 26 109 47 40 22 116 -38 116 -25 0 -68 -44 -68 -70 0 -21 32
-60 50 -60 6 0 10 -37 10 -90 l0 -90 -32 0 c-18 0 -44 -6 -58 -13 -35 -18 -70
-74 -70 -114 l0 -33 -47 4 c-53 6 -60 12 -98 83 -26 48 -26 53 -11 74 42 60 1
139 -72 139 -67 0 -107 -59 -81 -121 14 -34 63 -61 95 -53 15 4 25 -7 48 -48
46 -85 62 -98 118 -98 l48 0 0 -55 0 -55 -115 0 c-89 0 -115 3 -115 13 0 18
-39 53 -68 62 -56 17 -120 -46 -107 -106 15 -65 103 -92 150 -44 14 13 25 31
25 40 0 13 18 15 115 15 l115 0 0 -60 0 -60 -80 0 c-62 0 -81 3 -88 16 -11 20
-51 15 -66 -8 -23 -37 36 -77 64 -43 9 11 32 15 91 15 l79 0 0 -57 0 -58 -100
0 -100 0 -41 -48 c-33 -38 -47 -47 -73 -47 -60 0 -88 -68 -46 -110 27 -27 56
-25 85 5 26 25 31 50 15 75 -7 11 1 26 32 57 l42 43 92 0 91 0 6 -42 c8 -60
60 -108 117 -108 l40 0 0 -91 0 -91 -36 -34 c-34 -30 -39 -32 -58 -19 -47 34
-126 5 -140 -51 -15 -60 44 -122 103 -109 47 10 74 47 69 94 -3 31 0 42 12 46
8 3 27 16 43 30 26 25 27 30 27 125 l0 100 55 0 55 0 0 -81 c0 -58 -4 -85 -15
-95 -20 -21 -19 -37 6 -60 15 -13 24 -16 36 -8 32 20 38 41 20 62 -14 15 -19
40 -20 101 l-2 81 57 0 58 0 0 -110 c0 -100 -2 -110 -20 -120 -42 -22 -45 -86
-6 -112 21 -14 66 -8 86 12 28 28 25 57 -10 90 -30 28 -30 29 -30 134 l0 106
60 0 60 0 0 -81 c0 -69 4 -89 26 -129 25 -46 25 -50 10 -71 -50 -73 18 -166
101 -138 91 30 70 169 -26 169 -33 0 -39 5 -63 49 -24 41 -28 61 -28 125 l0
76 41 0 c33 0 47 6 75 34 28 28 34 42 34 75 l0 42 77 -3 76 -3 30 -48 c23 -37
27 -51 17 -62 -19 -23 -8 -76 22 -98 23 -17 31 -18 56 -8 69 29 55 131 -19
131 -22 0 -33 9 -58 49 -38 63 -59 74 -135 69 l-61 -3 -3 58 -3 57 126 0 c101
0 130 -3 142 -16 32 -32 91 6 67 44 -15 23 -62 28 -70 8 -5 -13 -27 -16 -135
-16 l-129 0 0 60 0 60 144 0 c111 0 146 3 155 14 10 12 16 12 41 0 83 -42 166
71 101 140 -28 30 -60 37 -99 20 -39 -16 -55 -48 -49 -95 3 -20 0 -42 -6 -48
-7 -7 -63 -11 -149 -11 l-138 0 0 55 0 55 76 0 c54 0 80 -4 90 -15 21 -20 37
-19 60 6 19 22 13 43 -19 63 -12 8 -21 5 -37 -9 -17 -15 -38 -20 -96 -21 l-74
-1 0 34 c0 70 -51 123 -120 123 l-31 0 3 92 3 92 40 23 c38 21 40 21 60 4 31
-28 53 -32 90 -17 91 38 65 166 -34 166 -32 0 -44 -6 -66 -32 -18 -21 -25 -39
-22 -56 4 -20 -2 -26 -39 -43 -57 -24 -67 -51 -61 -151 l5 -78 -59 0 -59 0 0
135 c0 83 4 135 10 135 19 0 50 40 50 65 0 31 -41 75 -70 75 -11 0 -32 -11
-45 -25z m75 -34 c7 -15 6 -23 -6 -35 -8 -9 -19 -16 -24 -16 -5 0 -16 7 -24
16 -20 19 -5 54 24 54 11 0 24 -9 30 -19z m322 -57 c9 -18 9 -30 1 -42 -14
-24 -63 -22 -79 3 -12 18 -11 24 2 43 21 31 61 29 76 -4z m-596 -39 c7 -18
-13 -45 -33 -45 -17 0 -27 24 -19 45 7 20 45 19 52 0z m-392 -171 c19 -18 20
-28 6 -55 -13 -23 -53 -25 -74 -3 -20 19 -20 24 0 52 18 26 46 28 68 6z m287
-142 c-14 -26 -41 -48 -41 -33 0 11 35 51 45 51 3 0 1 -8 -4 -18z m593 -13
c21 -24 26 -40 24 -77 -1 -44 -2 -45 -5 -9 -2 20 -8 35 -14 32 -5 -3 -6 1 -3
10 7 18 -20 53 -51 66 -19 7 -19 8 2 8 12 1 32 -12 47 -30z m-39 -23 c17 -13
19 -30 18 -275 -1 -191 -4 -265 -13 -276 -10 -13 -55 -15 -273 -15 -228 0
-263 2 -279 17 -17 15 -18 37 -18 271 0 224 2 258 17 274 15 17 37 18 273 18
201 0 260 -3 275 -14z m503 -88 c7 -7 12 -21 12 -33 0 -12 -5 -26 -12 -33 -7
-7 -21 -12 -33 -12 -12 0 -26 5 -33 12 -7 7 -12 21 -12 33 0 12 5 26 12 33 7
7 21 12 33 12 12 0 26 -5 33 -12z m-1430 -90 c21 -21 14 -57 -14 -70 -31 -14
-57 -1 -62 31 -7 42 46 69 76 39z m994 -275 c3 -29 1 -53 -4 -53 -4 0 -8 26
-8 57 0 69 7 67 12 -4z m-12 -91 c0 -22 -37 -68 -47 -59 -3 4 3 17 15 30 12
13 22 29 22 35 0 7 2 12 5 12 3 0 5 -8 5 -18z m-618 -32 c16 -18 23 -30 15
-30 -13 0 -36 21 -51 48 -13 22 6 13 36 -18z m-377 -50 c0 -18 -6 -26 -23 -28
-27 -4 -40 22 -22 44 19 22 45 13 45 -16z m1315 -5 c18 -22 8 -50 -19 -50 -32
0 -49 28 -32 49 17 20 35 20 51 1z m-976 -291 c33 -32 13 -74 -35 -74 -27 0
-39 15 -39 49 0 38 46 54 74 25z m424 -8 c5 -25 -12 -39 -37 -31 -20 6 -28 34
-14 49 13 13 48 1 51 -18z m240 -18 c30 -30 3 -83 -39 -76 -32 5 -45 31 -31
62 13 28 49 35 70 14z"/>
<path d="M715 1077 c-3 -7 -4 -123 -3 -257 l3 -245 257 -3 257 -2 3 250 c2
138 2 255 0 260 -6 16 -511 13 -517 -3z m469 -23 c14 -5 16 -35 16 -225 0
-206 -1 -219 -19 -229 -12 -6 -101 -10 -219 -10 l-200 0 -10 28 c-6 15 -10 44
-10 65 2 34 3 37 15 21 7 -10 13 -21 13 -26 0 -16 68 -8 90 12 29 25 65 26 91
1 17 -15 36 -19 110 -19 76 0 91 3 99 19 6 10 10 73 10 140 0 134 -9 159 -58
159 -42 0 -62 -27 -62 -84 0 -61 -13 -88 -28 -60 -5 11 -15 36 -21 56 -20 61
-47 88 -90 88 -49 0 -75 -28 -105 -111 -12 -35 -31 -82 -42 -104 l-19 -40 -3
154 c-2 117 1 156 10 163 15 9 408 11 432 2z m-194 -216 c24 -68 45 -129 48
-136 8 -24 -52 -8 -64 17 -10 19 -20 23 -68 24 -53 2 -56 1 -66 -26 -8 -23
-14 -28 -37 -25 -33 4 -34 -5 17 133 22 61 43 116 45 123 2 7 21 12 43 12 l38
0 44 -122z m150 -11 l0 -134 -30 0 -30 0 0 134 0 133 30 0 30 0 0 -133z"/>
<path d="M884 850 l-21 -60 43 0 c24 0 44 1 44 3 0 9 -34 103 -39 109 -3 4
-16 -20 -27 -52z"/>
</g>
</svg>
