<?xml version="1.0" standalone="no"?>
<!DOCTYPE svg PUBLIC "-//W3C//DTD SVG 20010904//EN"
 "http://www.w3.org/TR/2001/REC-SVG-20010904/DTD/svg10.dtd">
<svg version="1.0" xmlns="http://www.w3.org/2000/svg"
 width="300.000000pt" height="300.000000pt" viewBox="0 0 300.000000 300.000000"
 preserveAspectRatio="xMidYMid meet">
<metadata>
Created by potrace 1.10, written by Peter Selinger 2001-2011
</metadata>
<g transform="translate(0.000000,300.000000) scale(0.050000,-0.050000)"
fill="#000000" stroke="none">
<path d="M2861 4727 c-27 -6 -79 -34 -116 -62 -66 -50 -70 -51 -125 -18 -83
49 -147 41 -243 -33 -154 -116 -300 -453 -231 -530 32 -35 32 -43 4 -96 -59
-113 -16 -278 88 -340 39 -23 68 -73 108 -188 159 -448 420 -633 762 -538 162
45 401 366 463 623 7 31 40 74 72 97 116 83 152 251 80 368 l-37 60 61 52 c73
62 69 79 -72 269 -182 247 -539 394 -814 336z m376 -176 c120 -42 261 -150
340 -259 l65 -92 -88 0 c-48 0 -195 32 -326 71 -323 96 -426 85 -593 -64 -68
-61 -86 -67 -200 -67 -184 1 -188 8 -100 181 93 183 160 239 228 191 67 -47
164 -40 230 16 95 79 261 88 444 23z m-34 -421 c132 -38 253 -70 269 -70 15 0
28 -12 28 -27 0 -15 22 -37 49 -49 95 -43 85 -213 -13 -227 -37 -6 -56 -37
-107 -177 -143 -395 -274 -540 -487 -540 -214 0 -336 131 -482 519 -54 141
-83 193 -111 198 -89 15 -118 134 -49 203 34 34 67 40 220 40 139 0 180 6 180
27 0 49 81 132 146 151 96 28 98 27 357 -48z"/>
<path d="M1400 4270 c-19 -23 -48 -28 -118 -18 -157 20 -360 -266 -260 -366
15 -15 15 -25 0 -35 -43 -26 -25 -150 30 -204 28 -29 70 -101 93 -162 109
-284 354 -397 549 -252 57 43 206 298 206 355 0 12 18 34 41 48 64 40 83 115
50 194 -26 63 -25 69 14 95 l42 28 -42 69 c-135 218 -505 369 -605 248z m342
-112 c73 -36 178 -144 178 -181 0 -24 -79 -10 -262 47 -155 49 -258 38 -331
-35 -59 -59 -227 -72 -227 -18 0 88 124 233 164 193 35 -35 86 -29 171 17 86
46 186 39 307 -23z m-50 -240 c205 -56 316 -179 191 -211 -23 -6 -60 -66 -100
-163 -172 -414 -437 -387 -581 59 -13 41 -46 88 -73 106 -98 64 -49 126 108
138 82 7 112 19 145 61 51 64 106 66 310 10z"/>
<path d="M4354 4260 c-31 -25 -56 -33 -64 -20 -29 46 -135 21 -200 -49 -80
-85 -140 -244 -107 -284 16 -20 16 -42 -1 -83 -29 -68 -3 -150 57 -188 23 -14
41 -36 41 -48 0 -12 32 -87 71 -165 104 -207 184 -257 398 -246 83 4 230 162
285 306 23 61 66 135 94 164 56 55 71 166 28 209 -18 18 -14 33 14 65 156 171
-424 490 -616 339z m280 -70 c112 -33 283 -181 249 -215 -12 -12 -89 1 -205
34 -210 61 -284 57 -375 -20 -51 -42 -243 -75 -243 -41 0 96 155 269 190 212
20 -32 83 -23 155 20 78 48 98 49 229 10z m59 -277 c174 -50 249 -141 165
-200 -23 -16 -72 -100 -110 -186 -162 -378 -390 -371 -551 17 -40 97 -77 157
-100 163 -38 10 -53 101 -20 121 9 6 69 14 134 19 75 6 120 19 126 36 24 84
133 93 356 30z"/>
<path d="M1808 3245 c-12 -8 -83 -104 -158 -213 -110 -158 -141 -192 -158
-168 -242 322 -297 376 -384 376 -187 0 -368 -340 -368 -692 l0 -105 120 -80
c217 -145 482 -217 721 -197 l139 12 0 -229 0 -229 125 -93 c652 -485 1595
-478 2252 17 l106 80 -6 239 c-7 231 -6 239 33 227 260 -76 646 -3 910 173
l120 80 0 105 c0 358 -198 712 -398 712 -77 0 -82 -4 -228 -210 l-149 -210
-156 195 c-86 107 -157 197 -159 201 -50 70 -242 -42 -335 -196 -23 -38 -44
-73 -47 -77 -3 -3 -32 14 -65 38 -63 46 -303 49 -318 4 -3 -10 -100 -153 -215
-317 -116 -164 -214 -307 -218 -318 -6 -12 -15 -11 -26 3 -9 13 -129 164 -266
336 l-250 312 -126 -4 c-120 -4 -128 -1 -162 55 -87 144 -251 228 -334 173z
m133 -85 c21 -12 69 -62 108 -113 l71 -92 -69 -77 c-118 -130 -210 -285 -268
-450 l-56 -158 -228 1 c-256 1 -381 35 -563 152 l-101 64 9 162 c10 188 57
307 166 428 103 114 105 113 312 -157 101 -132 190 -240 198 -240 8 0 81 101
162 224 193 291 193 291 259 256z m3059 -93 c101 -115 146 -235 156 -418 l9
-162 -101 -64 c-302 -194 -879 -231 -912 -58 -18 99 -126 313 -215 429 -71 92
-77 108 -56 150 46 88 162 216 195 216 27 0 229 -241 389 -466 24 -33 41 -14
176 189 224 338 223 338 359 184z m-1420 -289 c0 -108 -6 -128 -57 -175 -41
-39 -61 -81 -71 -153 -8 -55 -38 -187 -66 -294 -81 -306 15 -516 203 -444 79
31 48 148 -40 148 -72 0 -77 63 -22 276 27 107 56 232 63 277 25 160 138 131
155 -39 6 -59 31 -173 54 -252 57 -189 50 -245 -32 -266 -121 -31 -109 -136
16 -136 97 0 168 64 188 167 12 66 -3 148 -115 620 -13 52 -37 87 -76 109 -46
27 -58 49 -63 118 -9 110 5 108 101 -14 163 -206 241 -450 242 -750 l0 -180
-125 -85 c-585 -394 -1346 -395 -1950 -2 l-125 82 0 193 c0 328 92 581 289
793 l110 119 -29 -88 c-40 -117 -37 -207 10 -362 50 -163 50 -194 0 -210 -106
-34 -122 -214 -26 -290 164 -129 372 91 240 253 -98 122 -162 538 -98 641 9
14 127 -123 312 -365 164 -214 299 -389 300 -389 1 0 124 185 272 409 303 459
340 490 340 289z m-1224 -705 c4 -19 -6 -33 -23 -33 -38 0 -60 33 -42 61 18
29 58 13 65 -28z"/>
</g>
</svg>
