<?xml version="1.0" standalone="no"?>
<!DOCTYPE svg PUBLIC "-//W3C//DTD SVG 20010904//EN"
 "http://www.w3.org/TR/2001/REC-SVG-20010904/DTD/svg10.dtd">
<svg version="1.0" xmlns="http://www.w3.org/2000/svg"
 width="300.000000pt" height="300.000000pt" viewBox="0 0 300.000000 300.000000"
 preserveAspectRatio="xMidYMid meet">
<metadata>
Created by potrace 1.10, written by Peter Selinger 2001-2011
</metadata>
<g transform="translate(0.000000,300.000000) scale(0.050000,-0.050000)"
fill="#000000" stroke="none">
<path d="M475 5665 c-140 -140 -261 -264 -269 -275 -14 -19 164 144 232 212
162 163 309 318 301 318 -5 0 -124 -115 -264 -255z"/>
<path d="M2740 5908 c-855 -103 -1483 -416 -1972 -985 -1563 -1818 -343 -4622
2052 -4717 498 -20 1160 133 1463 338 29 20 59 36 66 36 40 0 440 309 580 448
1506 1492 917 4029 -1099 4732 -290 101 -849 177 -1090 148z m640 -261 c632
-101 1177 -426 1633 -973 641 -768 715 -2183 158 -3004 -28 -41 -45 -85 -38
-97 8 -13 6 -17 -3 -9 -8 8 -51 -37 -95 -100 -154 -221 -753 -744 -853 -744
-10 0 -87 -32 -170 -71 -518 -242 -1210 -299 -1772 -145 -82 22 -159 43 -170
45 -68 16 -438 198 -576 285 -244 153 -662 540 -686 636 -7 28 -20 50 -29 50
-28 0 -198 288 -279 474 -434 984 -227 2131 522 2893 129 132 202 193 219 182
15 -9 20 -7 12 6 -28 46 330 275 639 407 270 115 452 157 888 205 109 12 391
-7 600 -40z"/>
<path d="M1830 4792 c-100 -45 -247 -233 -277 -355 -13 -56 -58 -76 -169 -77
-140 0 -283 -97 -406 -274 l-59 -85 6 -1137 5 -1137 56 -82 c86 -124 194 -223
304 -282 l100 -53 1530 0 1530 0 95 44 c129 59 300 237 347 359 38 99 72 2617
38 2804 -15 81 -154 238 -244 276 -95 40 -2767 38 -2856 -1z m2871 -233 c65
-65 52 -2686 -14 -2809 -130 -241 -44 -230 -1767 -230 -1601 0 -1560 -3 -1677
106 -126 118 -123 86 -123 1271 0 1324 -29 1243 446 1243 l226 0 -8 180 c-7
143 -2 190 24 230 l33 50 1409 0 c1390 0 1411 -1 1451 -41z"/>
<path d="M1988 4402 c-4 -5 -8 -585 -8 -1290 0 -1098 -5 -1290 -30 -1339 -17
-32 -30 -61 -30 -65 0 -26 2426 -6 2489 20 135 57 131 11 131 1416 l0 1266
-1272 0 c-699 0 -1275 -4 -1280 -8z m698 -482 c27 -33 34 -81 34 -251 l0 -212
-65 7 -65 6 -3 180 -3 180 -74 0 -74 0 -3 -180 -3 -180 -65 -6 -65 -7 0 252 0
251 176 0 c151 0 180 -6 210 -40z m494 -19 c0 -58 -1 -59 -125 -65 -102 -5
-126 -13 -132 -43 -6 -32 6 -35 100 -30 104 5 107 4 113 -50 7 -56 6 -56 -99
-50 -87 6 -107 1 -113 -27 -5 -29 13 -35 120 -40 121 -6 126 -8 132 -61 l7
-55 -155 0 c-213 0 -228 16 -228 237 0 227 14 243 223 243 l157 0 0 -59z m220
-121 c0 -147 6 -180 30 -180 24 0 30 33 30 180 l0 180 60 0 60 0 0 -181 c0
-158 4 -181 33 -175 28 5 32 32 29 181 l-4 175 69 0 69 0 0 -205 c0 -273 -2
-275 -258 -275 -251 0 -258 8 -258 284 l0 196 70 0 70 0 0 -180z m820 120 c0
-60 0 -60 -120 -60 -107 0 -120 -4 -120 -40 0 -34 13 -40 93 -40 117 0 167
-41 167 -137 0 -121 -60 -163 -233 -163 l-147 0 0 70 0 70 131 0 c115 0 131 4
125 35 -6 27 -25 34 -86 30 -148 -9 -226 143 -127 249 38 39 64 46 180 46
l137 0 0 -60z m100 -659 c0 -121 -22 -138 -89 -67 -63 69 -63 73 2 125 76 60
87 52 87 -58z m-780 -9 c0 -31 -54 -58 -82 -41 -38 24 -17 69 32 69 29 0 50
-11 50 -28z m458 -157 l-5 -125 124 7 123 7 0 -134 0 -133 -124 5 -123 5 5
-123 5 -124 -133 0 -134 0 7 124 7 123 -125 -5 -125 -5 0 133 0 134 125 -7
125 -7 -7 125 -7 125 134 0 133 0 -5 -125z m-694 -5 l-8 -70 -498 0 -498 0 0
70 0 70 506 0 506 0 -8 -70z m-4 -270 l0 -70 -500 0 -500 0 0 70 0 70 500 0
500 0 0 -70z m0 -270 l0 -70 -500 0 -500 0 0 70 0 70 500 0 500 0 0 -70z m940
-275 l0 -65 -970 0 -970 0 0 65 0 65 970 0 970 0 0 -65z m-1958 -256 c46 -25
32 -59 -23 -59 -26 0 -39 14 -39 40 0 46 8 48 62 19z"/>
<path d="M1324 3936 c-41 -41 -34 -2019 7 -2099 60 -114 234 -150 351 -71 86
58 115 142 117 339 l1 155 -149 0 c-94 0 -154 9 -163 24 -9 13 -13 386 -10
828 5 789 4 805 -35 826 -52 28 -89 28 -119 -2z"/>
<path d="M1648 3928 c7 -17 12 -359 12 -760 l0 -728 70 0 70 0 0 760 0 760
-82 0 c-67 0 -80 -6 -70 -32z"/>
<path d="M4610 645 c-96 -14 -121 -49 -116 -164 5 -96 -22 -136 -47 -71 -6 17
-23 30 -37 30 -14 0 -31 -13 -37 -30 -20 -51 -56 -33 -49 25 5 45 16 55 61 54
30 0 55 7 55 15 0 24 -116 19 -131 -5 -7 -12 -35 -30 -62 -40 -41 -16 -48 -30
-43 -84 l6 -65 740 0 740 0 0 170 0 170 -510 2 c-280 1 -537 -2 -570 -7z m210
-168 c0 29 73 30 91 2 23 -38 -31 -81 -73 -58 -21 11 -39 13 -39 5 -1 -9 -10
2 -19 24 -15 34 -17 35 -19 5 -2 -70 -41 -33 -41 40 l0 75 50 -58 c28 -32 50
-48 50 -35z m-120 23 c0 -22 -13 -40 -30 -40 -16 0 -30 -9 -30 -20 0 -11 -9
-20 -20 -20 -11 0 -20 27 -20 60 0 51 8 60 50 60 37 0 50 -11 50 -40z m345 -5
c38 -6 55 -1 55 18 0 58 100 31 102 -28 2 -30 7 -40 11 -22 14 50 207 47 207
-3 0 -43 -47 -65 -76 -36 -12 12 -32 13 -47 4 -32 -20 -97 -12 -132 16 -18 15
-25 14 -25 -4 0 -13 -13 -19 -29 -13 -17 6 -34 5 -39 -4 -19 -31 -119 -9 -133
29 -18 51 -1 94 28 71 13 -10 48 -22 78 -28z m535 -35 c0 -49 -39 -54 -42 -5
-3 33 -3 33 -12 0 -10 -40 -46 -48 -46 -10 -1 17 -7 15 -20 -5 -16 -24 -19
-21 -20 15 0 38 11 45 70 45 57 0 70 -8 70 -40z"/>
</g>
</svg>
