<?xml version="1.0" standalone="no"?>
<!DOCTYPE svg PUBLIC "-//W3C//DTD SVG 20010904//EN"
 "http://www.w3.org/TR/2001/REC-SVG-20010904/DTD/svg10.dtd">
<svg version="1.0" xmlns="http://www.w3.org/2000/svg"
 width="300.000000pt" height="300.000000pt" viewBox="0 0 300.000000 300.000000"
 preserveAspectRatio="xMidYMid meet">
<metadata>
Created by potrace 1.10, written by Peter Selinger 2001-2011
</metadata>
<g transform="translate(0.000000,300.000000) scale(0.050000,-0.050000)"
fill="#000000" stroke="none">
<path d="M2778 5931 c-4 -4 -39 -12 -78 -19 -142 -24 -403 -124 -440 -170 -5
-7 -37 -26 -70 -42 -220 -110 -633 -742 -560 -859 6 -10 3 -23 -5 -28 -40 -25
-43 -519 -4 -568 5 -6 6 -13 26 -112 42 -208 458 -773 571 -773 11 0 63 -27
114 -59 52 -33 102 -55 111 -49 9 6 17 2 17 -8 0 -91 647 -147 890 -76 147 43
390 152 390 175 0 9 14 17 31 17 79 0 399 364 494 560 139 288 191 702 114
900 -2 6 -3 17 -1 26 4 26 -101 322 -126 354 -13 17 -42 65 -63 108 -105 211
-436 465 -738 568 -128 43 -642 86 -673 55z m550 -155 c-9 -14 55 -26 100 -17
10 2 24 -6 31 -17 7 -12 30 -24 52 -28 59 -9 189 -76 189 -96 0 -10 7 -16 15
-13 21 7 179 -110 182 -135 2 -11 14 -20 28 -20 14 0 25 -12 25 -27 0 -14 16
-38 35 -52 42 -31 140 -171 119 -171 -8 0 -2 -8 12 -17 23 -15 36 -49 42 -108
1 -8 13 -15 27 -15 14 0 26 -28 28 -65 4 -117 32 -235 55 -235 14 0 22 -55 22
-160 0 -108 -7 -158 -22 -152 -13 5 -18 -10 -13 -40 5 -26 19 -42 29 -35 24
15 -1 -78 -25 -93 -9 -6 -16 -41 -15 -77 1 -37 -10 -74 -25 -84 -15 -9 -21
-23 -13 -31 8 -8 -3 -34 -25 -57 -22 -23 -43 -60 -46 -82 -10 -59 -55 -132
-74 -120 -9 6 -22 -3 -29 -20 -7 -20 -3 -27 13 -19 14 7 5 -5 -20 -27 -25 -22
-45 -48 -45 -59 0 -26 -58 -47 -85 -31 -14 9 -17 1 -9 -20 7 -18 3 -33 -8 -33
-11 0 -14 -11 -6 -25 8 -14 7 -18 -2 -10 -22 20 -73 -24 -57 -50 8 -12 3 -15
-10 -7 -13 8 -23 5 -23 -7 0 -11 -9 -21 -20 -21 -11 0 -38 -18 -60 -40 -21
-21 -53 -34 -70 -27 -19 7 -30 0 -30 -19 0 -29 -87 -72 -170 -85 -72 -10 -100
-19 -111 -35 -7 -8 -42 -19 -78 -23 -36 -5 -70 -14 -76 -20 -6 -6 -22 -2 -36
10 -16 13 -42 13 -78 -1 -69 -26 -182 -26 -121 0 33 14 34 17 6 19 -18 0 -39
-7 -45 -18 -14 -23 -91 -19 -91 5 0 9 -16 14 -35 11 -19 -3 -48 2 -64 12 -16
10 -48 21 -70 23 -23 3 -68 16 -101 30 -33 13 -67 23 -75 21 -8 -2 -15 5 -15
15 0 10 -22 23 -50 30 -27 7 -50 22 -50 34 0 11 -9 15 -20 8 -11 -7 -20 -2
-20 10 0 12 -9 17 -20 10 -11 -7 -20 3 -20 22 0 19 -5 29 -12 23 -7 -7 -36 9
-65 36 -29 27 -59 49 -68 49 -8 0 -15 13 -15 29 0 15 -18 34 -40 41 -22 7 -40
25 -40 39 0 15 -22 41 -50 59 -27 18 -50 51 -50 72 0 22 -16 56 -35 77 -19 20
-38 49 -42 64 -3 16 -17 35 -30 44 -12 8 -16 15 -8 15 9 0 1 23 -18 51 -18 28
-32 80 -31 115 1 35 -7 69 -18 75 -11 7 -23 73 -28 146 -4 74 -1 130 8 125 8
-6 13 55 10 134 -3 96 1 127 12 94 12 -38 17 -22 18 70 2 85 8 111 22 90 14
-22 19 -11 20 45 0 41 9 75 20 75 11 0 20 14 20 31 0 19 9 26 23 17 14 -9 18
-5 9 9 -8 13 4 47 26 76 23 28 37 60 30 69 -6 10 4 24 21 30 17 7 31 23 31 35
0 13 18 35 41 49 22 14 35 34 29 45 -7 10 0 19 16 19 15 0 49 27 74 60 25 32
53 54 63 48 9 -6 23 4 29 21 7 17 21 31 31 31 10 0 38 18 62 40 23 22 59 40
79 40 20 0 36 7 36 16 0 8 19 17 43 19 24 2 49 11 55 20 7 9 34 18 62 20 27 2
53 13 56 24 5 14 125 20 345 17 185 -2 332 -10 327 -20z"/>
<path d="M2631 5329 c-23 -24 -31 -75 -31 -210 l0 -179 -179 0 c-250 0 -241
14 -241 -400 0 -414 -9 -400 241 -400 l179 0 0 -179 c0 -250 -14 -241 400
-241 414 0 400 -9 400 241 l0 179 179 0 c250 0 241 -14 241 400 0 414 9 400
-241 400 l-179 0 0 189 c0 167 -5 192 -39 210 -67 36 -692 27 -730 -10z m549
-366 c0 -231 12 -243 241 -243 l174 0 0 -180 0 -180 -171 0 c-232 0 -244 -12
-244 -239 l0 -172 -180 0 -180 0 0 169 c0 229 -13 242 -238 242 l-172 0 0 180
0 180 168 0 c229 0 242 13 242 240 l0 173 180 0 180 0 0 -170z"/>
<path d="M5894 5407 c-7 -7 -3 -30 9 -52 19 -37 16 -40 -31 -31 -44 9 -52 3
-52 -37 0 -26 9 -47 19 -47 11 0 15 14 8 30 -7 19 1 30 21 30 29 0 41 -24 34
-66 -2 -10 5 -12 14 -7 9 6 14 49 10 96 -7 90 -12 104 -32 84z"/>
<path d="M5498 5170 c-9 -46 -3 -111 11 -115 25 -7 31 63 7 77 -13 8 -10 19 7
30 20 13 20 17 2 18 -14 0 -26 -4 -27 -10z"/>
<path d="M5951 5141 c-8 -12 -24 -16 -37 -8 -13 7 -17 6 -9 -3 8 -9 6 -26 -4
-39 -12 -14 -12 -34 0 -52 14 -23 18 -19 19 17 0 30 8 41 23 32 14 -8 18 -5
10 7 -7 12 -2 26 12 31 14 4 19 15 12 23 -7 7 -19 4 -26 -8z"/>
<path d="M5844 5032 c8 -9 5 -35 -6 -56 -18 -34 -16 -37 15 -19 40 20 50 23
97 23 17 0 30 14 30 31 0 29 -3 29 -32 -1 -30 -29 -36 -29 -75 4 -24 19 -37
28 -29 18z"/>
<path d="M5903 4858 c-19 -51 -6 -158 20 -158 10 0 12 24 4 53 -11 44 -7 51
20 41 18 -7 33 -5 33 4 0 10 -14 23 -32 30 -18 7 -27 25 -21 42 7 17 7 30 2
30 -6 0 -17 -19 -26 -42z"/>
<path d="M171 4116 c-228 -133 -219 -225 98 -977 575 -1366 589 -1388 1191
-1920 203 -179 232 -219 156 -219 -130 0 -136 -22 -136 -468 0 -368 3 -409 37
-439 59 -54 2921 -50 2970 4 28 31 33 92 33 438 0 442 -7 465 -134 465 -84 0
-45 48 261 321 384 344 465 444 633 789 162 331 678 1547 703 1656 69 298
-267 504 -508 314 -42 -32 -439 -656 -533 -835 -19 -37 -31 -42 -62 -25 -172
92 -288 18 -612 -390 -331 -418 -351 -438 -668 -680 -311 -238 -477 -398 -543
-522 -57 -108 -57 -108 -113 0 -66 122 -227 283 -468 464 -349 262 -409 321
-727 717 -353 441 -421 486 -617 412 -43 -17 -55 -13 -74 25 -111 215 -493
804 -550 847 -98 75 -232 84 -337 23z m493 -658 c193 -315 275 -466 276 -509
0 -101 78 -301 246 -635 177 -351 222 -402 311 -352 87 48 76 101 -83 415
-254 500 -294 644 -178 643 50 -1 53 -3 322 -340 330 -412 406 -489 712 -719
433 -325 575 -517 607 -819 l15 -142 -496 0 -496 0 0 64 c0 70 3 66 -433 460
-435 392 -410 350 -1045 1841 -206 484 -218 532 -137 560 65 23 119 -43 379
-467z m5097 420 c16 -30 -44 -189 -293 -773 -505 -1189 -505 -1189 -958 -1601
-434 -396 -416 -376 -406 -445 l9 -59 -499 0 -499 0 10 138 c21 294 168 495
605 821 298 223 432 360 740 756 221 284 281 334 342 284 49 -41 -72 -357
-280 -734 -106 -192 -114 -250 -40 -298 47 -31 58 -31 104 -6 95 54 437 760
458 947 10 86 55 174 283 549 297 488 356 548 424 421z m-2881 -3353 l0 -235
-585 4 -585 3 -6 232 -5 231 590 0 591 0 0 -235z m1420 0 l0 -235 -590 0 -590
0 0 235 0 235 590 0 590 0 0 -235z"/>
</g>
</svg>
